# This file uses centimeters as units for non-parametric coordinates.

mtllib Ankh.mtl
g default
v -0.971310 -0.500000 -0.178957
v -0.971310 -0.500000 0.178957
v -0.500000 5.878969 0.178957
v -0.500000 5.878969 -0.178957
v 0.005347 5.878969 -0.178957
v 0.010388 -0.500000 -0.178957
v -3.892183 5.335066 -0.178957
v -3.892183 5.335066 0.178957
v -3.892183 7.295805 0.178957
v -3.892183 7.295805 -0.178957
v 0.010388 -0.500000 0.178957
v 0.005347 5.878969 0.178957
v 0.500000 5.878969 -0.178957
v 0.971310 -0.500000 -0.178957
v 0.971310 -0.500000 0.178957
v 0.500000 5.878969 0.178957
v -0.501446 6.795528 -0.180633
v -0.900325 7.520241 -0.171418
v -0.275720 7.478485 -0.170719
v 0.005464 6.795527 -0.180633
v -1.292855 8.127737 -0.168493
v -0.744671 8.223428 -0.163984
v -0.275720 7.478485 0.170719
v -0.900325 7.520240 0.171419
v -0.501446 6.795527 0.180633
v -0.591540 7.943982 -0.163501
v 0.005464 6.795527 0.180633
v 0.002275 7.437616 -0.170719
v -0.500000 6.751902 -0.178957
v -1.488449 8.529007 -0.168493
v -0.893870 8.621455 -0.183838
v 0.500769 6.795527 -0.180633
v 0.280525 7.476721 -0.170719
v -0.744672 8.223428 0.163984
v -1.292855 8.127736 0.168493
v -0.591540 7.943982 0.163500
v 0.002275 7.437616 0.170719
v -1.618529 8.977275 -0.168493
v -0.972176 9.068118 -0.183838
v -0.893870 8.621455 0.183838
v -1.488449 8.529007 0.168493
v 0.280525 7.476721 0.170719
v 0.500769 6.795527 0.180633
v -0.500000 6.751902 0.178957
v 0.903643 7.514516 -0.171418
v -0.972176 9.068118 0.183838
v -1.618529 8.977275 0.168493
v 0.903643 7.514516 0.171419
v 0.597859 7.940210 -0.163501
v 0.597859 7.940210 0.163500
v 1.296856 8.135477 -0.168493
v 0.751385 8.242399 -0.163984
v 1.296856 8.135477 0.168493
v 0.902084 8.615752 -0.183838
v 0.751386 8.242399 0.163984
v 1.494942 8.519536 -0.168493
v 0.902084 8.615752 0.183838
v 0.982101 9.061912 -0.183838
v 1.494943 8.519536 0.168493
v 0.982102 9.061913 0.183838
v 1.627865 8.966972 -0.168493
v 1.627865 8.966972 0.168493
v 0.005347 6.751902 -0.178957
v 0.005347 6.751902 0.178957
v -0.500000 6.795528 -0.178957
v -0.500000 6.795527 0.178957
v 0.005347 6.795527 -0.178957
v 0.500000 6.751902 -0.178957
v 0.005347 6.795527 0.178957
v 0.500000 6.751902 0.178957
v 0.500000 6.795527 -0.178957
v 0.500000 6.795527 0.178957
v -1.617048 9.444040 0.168493
v -1.617048 9.444040 -0.168493
v -0.971284 9.349099 -0.183838
v 3.892183 5.335066 -0.178957
v 3.892183 5.335066 0.178957
v -0.971284 9.349099 0.183838
v -1.484125 9.891477 0.168493
v -1.484125 9.891477 -0.168493
v -0.891267 9.618446 -0.183838
v 3.892183 7.295805 -0.178957
v -0.891267 9.618446 0.183838
v -1.230529 10.283340 -0.168493
v -0.738606 9.854346 -0.183838
v 3.892183 7.295805 0.178957
v -1.230529 10.283340 0.168493
v -0.738606 9.854346 0.183838
v -0.876804 10.587885 -0.168493
v -0.525669 10.037672 -0.183838
v -0.525669 10.037673 0.183838
v -0.876804 10.587885 0.168493
v -0.451608 10.780433 -0.168493
v -0.269708 10.153589 -0.183838
v -0.269708 10.153589 0.183838
v -0.451608 10.780433 0.168493
v 0.008542 10.192695 0.183838
v 0.008542 10.192695 -0.183838
v 0.010613 10.845396 -0.168493
v 0.982993 9.342898 0.183838
v 0.982992 9.342898 -0.183838
v 0.286538 10.151823 0.183838
v 0.286538 10.151823 -0.183838
v 1.629346 9.433738 -0.168493
v 0.904687 9.612746 0.183838
v 0.904687 9.612746 -0.183838
v 0.010613 10.845396 0.168493
v 0.541757 10.034288 0.183838
v 0.541757 10.034288 -0.183838
v 0.472413 10.777504 -0.168493
v 0.753526 9.849610 0.183838
v 0.753526 9.849610 -0.183838
v 1.499266 9.882008 -0.168493
v 1.629346 9.433738 0.168493
v 0.896377 10.582256 -0.168493
v 1.248162 10.275474 -0.168493
v 0.472413 10.777504 0.168493
v 1.499266 9.882009 0.168493
v 0.896378 10.582257 0.168493
v 1.248162 10.275474 0.168493
vt 0.375223 -0.000000
vt 0.375223 -0.000000
vt 0.435769 0.562252
vt 0.435769 0.562252
vt 0.500687 0.562252
vt 0.501334 -0.000000
vt 0.000000 0.514311
vt 0.000000 0.514311
vt 0.000000 0.687134
vt 0.000000 0.687134
vt 0.501334 -0.000000
vt 0.500687 0.562252
vt 0.564231 0.562252
vt 0.624777 -0.000000
vt 0.624777 -0.000000
vt 0.564231 0.562252
vt 0.464580 0.703235
vt 0.435583 0.643039
vt 0.384342 0.706916
vt 0.424009 0.744265
vt 0.500702 0.643039
vt 0.500292 0.699633
vt 0.333916 0.760462
vt 0.404338 0.768896
vt 0.384342 0.706916
vt 0.435583 0.643039
vt 0.464580 0.703235
vt 0.424009 0.744265
vt 0.500702 0.643039
vt 0.500292 0.699633
vt 0.435769 0.639193
vt 0.308790 0.795830
vt 0.385171 0.803978
vt 0.536037 0.703080
vt 0.564330 0.643039
vt 0.404338 0.768896
vt 0.333916 0.760461
vt 0.292080 0.835341
vt 0.375112 0.843348
vt 0.385171 0.803978
vt 0.308790 0.795830
vt 0.564330 0.643039
vt 0.536037 0.703080
vt 0.435769 0.639193
vt 0.616084 0.706411
vt 0.576802 0.743932
vt 0.375112 0.843348
vt 0.292079 0.835341
vt 0.616084 0.706411
vt 0.576802 0.743932
vt 0.666597 0.761144
vt 0.596525 0.770568
vt 0.666598 0.761144
vt 0.596525 0.770568
vt 0.615884 0.803476
vt 0.692044 0.794995
vt 0.615884 0.803476
vt 0.692044 0.794995
vt 0.626163 0.842801
vt 0.709120 0.834433
vt 0.626163 0.842801
vt 0.709120 0.834433
vt 0.500687 0.639193
vt 0.500687 0.639193
vt 0.435769 0.643039
vt 0.435769 0.643039
vt 0.500687 0.643039
vt 0.564231 0.639193
vt 0.500687 0.643039
vt 0.564231 0.639193
vt 0.564231 0.643039
vt 0.564231 0.643039
vt 0.292270 0.876482
vt 0.292270 0.876482
vt 0.375226 0.868114
vt 1.000000 0.514311
vt 1.000000 0.514311
vt 0.375226 0.868114
vt 0.309345 0.915920
vt 0.309345 0.915920
vt 0.385506 0.891855
vt 1.000000 0.687134
vt 0.385506 0.891855
vt 0.341923 0.950459
vt 0.405117 0.912647
vt 1.000000 0.687134
vt 0.341923 0.950459
vt 0.405117 0.912647
vt 0.387363 0.977303
vt 0.432471 0.928806
vt 0.432471 0.928806
vt 0.387363 0.977303
vt 0.441985 0.994274
vt 0.465353 0.939023
vt 0.465353 0.939023
vt 0.441985 0.994274
vt 0.501097 0.942470
vt 0.501097 0.942470
vt 0.501363 1.000000
vt 0.626278 0.867568
vt 0.626278 0.867568
vt 0.536809 0.938867
vt 0.536809 0.938867
vt 0.709310 0.875574
vt 0.616218 0.891352
vt 0.616218 0.891352
vt 0.501363 1.000000
vt 0.569596 0.928508
vt 0.569596 0.928508
vt 0.560687 0.994016
vt 0.596800 0.912230
vt 0.596800 0.912230
vt 0.692600 0.915086
vt 0.709310 0.875574
vt 0.615151 0.976806
vt 0.660342 0.949766
vt 0.560687 0.994016
vt 0.692600 0.915086
vt 0.615151 0.976807
vt 0.660342 0.949766
vn -0.997282 0.073684 0.000000
vn -0.997282 0.073684 0.000000
vn -0.997282 0.073684 0.000000
vn -0.997282 0.073684 0.000000
vn 0.000000 0.000000 -1.000000
vn 0.000000 0.000000 -1.000000
vn 0.000000 0.000000 -1.000000
vn 0.000000 0.000000 -1.000000
vn -1.000000 0.000000 0.000000
vn -1.000000 0.000000 0.000000
vn -1.000000 0.000000 0.000000
vn -1.000000 0.000000 0.000000
vn 0.000000 0.000000 1.000000
vn 0.000000 0.000000 1.000000
vn 0.000000 0.000000 1.000000
vn 0.000000 0.000000 1.000000
vn -0.000000 0.000000 -1.000000
vn 0.000000 0.000000 -1.000000
vn 0.000000 0.000000 1.000000
vn -0.000000 0.000000 1.000000
vn 0.158318 -0.987388 0.000000
vn 0.158318 -0.987388 0.000000
vn 0.158318 -0.987388 0.000000
vn 0.158318 -0.987388 0.000000
vn 0.997282 0.073684 0.000000
vn 0.997282 0.073684 0.000000
vn 0.997282 0.073684 0.000000
vn 0.997282 0.073684 0.000000
vn 0.001632 0.014991 -0.999886
vn 0.001412 0.014950 -0.999887
vn 0.004326 0.013078 -0.999905
vn 0.006064 0.011494 -0.999916
vn 0.000014 0.014843 -0.999890
vn 0.000020 0.014843 -0.999890
vn 0.000755 -0.012711 -0.999919
vn 0.003507 -0.005916 -0.999976
vn 0.004327 0.013079 0.999905
vn 0.001412 0.014950 0.999887
vn 0.001633 0.014991 0.999886
vn 0.006064 0.011495 0.999916
vn 0.000014 0.014843 0.999890
vn 0.000020 0.014843 0.999890
vn 0.000000 0.000000 -1.000000
vn 0.000000 0.000000 -1.000000
vn 0.000000 0.000000 -1.000000
vn -0.016559 -0.013912 -0.999766
vn -0.014596 -0.016142 -0.999763
vn -0.001573 0.015035 -0.999886
vn -0.001362 0.014989 -0.999887
vn 0.003507 -0.005916 0.999976
vn 0.000756 -0.012710 0.999919
vn -0.023831 -0.002989 -0.999712
vn -0.023828 -0.002897 -0.999712
vn -0.014595 -0.016142 0.999763
vn -0.016558 -0.013912 0.999766
vn -0.001362 0.014989 0.999887
vn -0.001573 0.015035 0.999886
vn 0.000000 0.000000 1.000000
vn 0.000000 0.000000 1.000000
vn 0.000000 0.000000 1.000000
vn -0.004333 0.013001 -0.999906
vn -0.006183 0.011276 -0.999917
vn -0.023828 -0.002897 0.999712
vn -0.023830 -0.002989 0.999712
vn -0.004334 0.013001 0.999906
vn -0.006184 0.011276 0.999917
vn 0.158318 0.987388 0.000000
vn 0.158318 0.987388 0.000000
vn 0.158318 0.987388 0.000000
vn 0.158318 0.987388 0.000000
vn -0.001478 -0.012657 -0.999919
vn -0.003974 -0.006110 -0.999973
vn -0.001479 -0.012656 0.999919
vn -0.003974 -0.006110 0.999973
vn 0.014497 -0.016615 -0.999757
vn 0.016603 -0.014167 -0.999762
vn 0.014497 -0.016615 0.999757
vn 0.016603 -0.014167 0.999762
vn 0.023822 -0.003032 -0.999712
vn 0.023825 -0.003125 -0.999711
vn 0.023822 -0.003031 0.999712
vn 0.023825 -0.003125 0.999711
vn -0.000000 0.000000 -1.000000
vn 0.000000 0.000000 1.000000
vn -1.000000 0.000000 0.000000
vn -1.000000 0.000000 0.000000
vn -1.000000 0.000000 0.000000
vn -1.000000 0.000000 0.000000
vn -0.000000 0.000000 -1.000000
vn -0.000000 0.000000 -1.000000
vn -0.000000 0.000000 -1.000000
vn -0.876069 -0.482185 -0.000002
vn -0.860139 -0.510060 -0.000001
vn -0.860139 -0.510060 -0.000001
vn -0.876069 -0.482185 -0.000002
vn 0.000000 0.000000 1.000000
vn 0.000000 0.000000 1.000000
vn -0.863739 -0.503939 -0.000001
vn -0.863739 -0.503939 -0.000001
vn -0.000000 0.000000 1.000000
vn 0.000000 0.000000 -1.000000
vn -0.933740 -0.357953 -0.000001
vn -0.933740 -0.357953 -0.000001
vn -0.990268 -0.139172 -0.000000
vn -0.990268 -0.139172 -0.000000
vn 0.000000 0.000000 1.000000
vn 1.000000 0.000000 0.000000
vn 1.000000 0.000000 0.000000
vn 1.000000 0.000000 0.000000
vn 1.000000 0.000000 0.000000
vn 0.827520 0.561437 0.000000
vn 0.827520 0.561437 0.000000
vn 0.827520 0.561437 0.000000
vn 0.827520 0.561437 0.000000
vn 0.145451 0.989366 -0.000001
vn 0.145451 0.989366 -0.000001
vn 0.145451 0.989366 -0.000001
vn 0.145451 0.989366 -0.000001
vn 0.876961 0.480561 0.000000
vn 0.876962 0.480561 0.000000
vn 0.876961 0.480561 0.000000
vn 0.876961 0.480561 0.000000
vn -0.989365 0.145455 -0.000000
vn -0.989365 0.145455 -0.000000
vn -0.139173 0.990268 0.000002
vn -0.139173 0.990268 0.000002
vn -0.139173 0.990268 0.000002
vn -0.139173 0.990268 0.000002
vn 0.936377 0.350996 0.000000
vn 0.936377 0.350996 0.000000
vn 0.936377 0.350996 0.000000
vn 0.936377 0.350996 0.000000
vn -0.023254 0.003419 -0.999724
vn -0.023254 0.003419 -0.999724
vn -0.158318 -0.987388 0.000000
vn -0.158318 -0.987388 0.000000
vn -0.158318 -0.987388 0.000000
vn -0.158318 -0.987388 0.000000
vn 0.860022 -0.510258 -0.000001
vn 0.872382 -0.488826 0.000000
vn 0.872382 -0.488826 0.000000
vn 0.860022 -0.510258 -0.000001
vn 0.984978 0.172681 0.000000
vn 0.984978 0.172681 0.000000
vn 0.984978 0.172681 0.000000
vn 0.984978 0.172681 0.000000
vn -0.023254 0.003419 0.999724
vn -0.023254 0.003419 0.999724
vn -0.908309 0.418300 0.000000
vn -0.908309 0.418300 0.000000
vn -0.825133 0.564939 0.000000
vn -0.825133 0.564939 0.000000
vn -0.825133 0.564939 0.000000
vn -0.825133 0.564939 0.000000
vn -0.021349 0.009832 -0.999724
vn -0.021349 0.009832 -0.999724
vn 0.999995 -0.003174 0.000000
vn 0.999995 -0.003174 0.000000
vn 0.999995 -0.003174 0.000000
vn 0.999995 -0.003174 0.000000
vn -0.000000 0.000000 -1.000000
vn -0.000000 0.000000 -1.000000
vn -0.021349 0.009831 0.999724
vn -0.021349 0.009832 0.999724
vn 0.958593 -0.284779 0.000000
vn 0.958593 -0.284779 0.000000
vn 0.958593 -0.284779 0.000000
vn 0.958593 -0.284779 0.000000
vn -0.017714 0.015448 -0.999724
vn -0.017714 0.015448 -0.999724
vn -0.000000 0.000000 1.000000
vn -0.000000 0.000000 1.000000
vn -0.753668 0.657255 -0.000000
vn -0.753668 0.657255 -0.000000
vn -0.891539 0.452944 0.000000
vn -0.891539 0.452944 0.000000
vn -0.891539 0.452944 0.000000
vn -0.891539 0.452944 0.000000
vn 0.839538 -0.543301 -0.000000
vn 0.839538 -0.543301 -0.000000
vn 0.839538 -0.543301 -0.000000
vn 0.839538 -0.543301 -0.000000
vn 0.861776 -0.507289 -0.000001
vn 0.861776 -0.507289 -0.000001
vn -0.017714 0.015448 0.999724
vn -0.017714 0.015448 0.999724
vn -0.012644 0.019813 -0.999724
vn -0.012644 0.019813 -0.999724
vn -0.158318 0.987388 0.000000
vn -0.158318 0.987388 0.000000
vn -0.158318 0.987388 0.000000
vn -0.158318 0.987388 0.000000
vn -0.927310 0.374294 0.000001
vn -0.927310 0.374294 0.000001
vn -0.927310 0.374294 0.000001
vn -0.927310 0.374294 0.000001
vn 0.652450 -0.757832 0.000002
vn 0.652450 -0.757832 0.000002
vn 0.652450 -0.757832 0.000002
vn 0.652450 -0.757832 0.000002
vn -0.537965 0.842967 0.000000
vn -0.537965 0.842967 0.000000
vn -0.012644 0.019813 0.999724
vn -0.012644 0.019813 0.999724
vn -0.006550 0.022573 -0.999724
vn -0.006550 0.022573 -0.999724
vn 0.412536 -0.910941 0.000000
vn 0.412536 -0.910941 0.000000
vn 0.412536 -0.910941 0.000000
vn 0.412536 -0.910941 0.000000
vn 0.929088 -0.369860 -0.000001
vn 0.929088 -0.369860 -0.000001
vn -0.984295 0.176531 -0.000000
vn -0.984295 0.176531 -0.000000
vn -0.984295 0.176531 -0.000000
vn -0.984295 0.176531 -0.000000
vn -0.278684 0.960383 0.000000
vn -0.278684 0.960383 0.000000
vn -0.006550 0.022573 0.999724
vn -0.006550 0.022573 0.999724
vn 0.139173 -0.990268 0.000000
vn 0.139173 -0.990268 0.000000
vn 0.139173 -0.990268 0.000000
vn 0.139173 -0.990268 0.000000
vn 0.000075 0.023504 -0.999724
vn 0.000075 0.023504 -0.999724
vn -0.999995 0.003171 0.000001
vn -0.999995 0.003171 0.000001
vn -0.999995 0.003171 0.000001
vn -0.999995 0.003171 0.000001
vn 1.000000 0.000000 0.000000
vn 1.000000 0.000000 0.000000
vn 1.000000 0.000000 0.000000
vn 1.000000 0.000000 0.000000
vn 0.989365 -0.145454 -0.000000
vn 0.989365 -0.145454 -0.000000
vn -0.145459 -0.989364 0.000000
vn -0.145459 -0.989364 0.000000
vn -0.145459 -0.989364 0.000000
vn -0.145459 -0.989364 0.000000
vn 0.023275 0.003271 -0.999724
vn 0.023275 0.003271 -0.999724
vn -0.960382 -0.278688 0.000000
vn -0.960382 -0.278688 0.000000
vn -0.960382 -0.278688 0.000000
vn -0.960382 -0.278688 0.000000
vn 0.000075 0.023504 0.999724
vn 0.000075 0.023504 0.999724
vn -0.418298 -0.908310 0.000000
vn -0.418298 -0.908310 0.000000
vn -0.418298 -0.908310 0.000000
vn -0.418298 -0.908310 0.000000
vn 0.006693 0.022530 -0.999724
vn 0.006693 0.022530 -0.999724
vn -0.842969 -0.537963 0.000000
vn -0.842969 -0.537963 0.000000
vn -0.842969 -0.537963 0.000000
vn -0.842969 -0.537963 0.000000
vn -0.657255 -0.753668 0.000000
vn -0.657255 -0.753668 0.000000
vn -0.657255 -0.753668 0.000000
vn -0.657255 -0.753668 0.000000
vn 0.003170 0.999995 0.000000
vn 0.003170 0.999995 0.000000
vn 0.021411 0.009696 -0.999724
vn 0.021411 0.009696 -0.999724
vn 0.023275 0.003271 0.999724
vn 0.023275 0.003271 0.999724
vn 0.012770 0.019732 -0.999724
vn 0.012770 0.019732 -0.999724
vn 0.990268 0.139172 -0.000000
vn 0.990268 0.139172 -0.000000
vn 0.017812 0.015335 -0.999724
vn 0.017812 0.015335 -0.999724
vn 0.006693 0.022531 0.999724
vn 0.006693 0.022531 0.999724
vn 0.021411 0.009696 0.999724
vn 0.021411 0.009696 0.999724
vn 0.284775 0.958594 0.000000
vn 0.284775 0.958594 0.000000
vn 0.012770 0.019732 0.999724
vn 0.012770 0.019732 0.999724
vn 0.017812 0.015335 0.999724
vn 0.017812 0.015335 0.999724
vn 0.910946 0.412526 -0.000000
vn 0.910946 0.412526 -0.000000
vn 0.543308 0.839533 -0.000000
vn 0.543308 0.839533 -0.000000
vn 0.757824 0.652459 -0.000000
vn 0.757824 0.652459 -0.000000
vn 0.000000 -1.000000 0.000000
vn 0.000000 -1.000000 0.000000
vn -0.000000 -1.000000 -0.000115
vn -0.000000 -1.000000 -0.000101
vn 0.000000 -1.000000 0.000000
vn 0.000000 -1.000000 0.000000
vn -0.000000 -1.000000 -0.000121
vn -0.000000 -1.000000 -0.000056
vn -0.000000 -1.000000 -0.000222
vn -0.000000 -1.000000 -0.000222
vn -0.000000 -1.000000 -0.000222
vn -0.000000 -1.000000 -0.000222
vn 0.000000 -1.000000 0.000000
vn 0.000000 -1.000000 0.000000
vn 0.000000 -1.000000 0.000000
vn 0.000000 -1.000000 0.000000
vn 0.000000 -1.000000 0.000000
vn 0.000000 -1.000000 0.000000
s off
g pTorus2
usemtl blinn1SG
f 1/1/1 2/2/2 3/3/3 4/4/4
s 1
f 4/4/5 5/5/6 6/6/7 1/1/8
s off
f 7/7/9 8/8/10 9/9/11 10/10/12
s 2
f 2/2/13 11/11/14 12/12/15 3/3/16
s 1
f 6/6/7 5/5/6 13/13/17 14/14/18
s 2
f 12/12/15 11/11/14 15/15/19 16/16/20
s off
f 4/4/21 3/3/22 8/8/23 7/7/24
f 15/15/25 14/14/26 13/13/27 16/16/28
s 3
f 19/17/29 17/18/30 18/19/31 26/20/32
f 20/21/33 17/18/30 19/17/29 28/22/34
f 18/19/31 21/23/35 22/24/36 26/20/32
s 4
f 24/25/37 25/26/38 23/27/39 36/28/40
f 23/27/39 25/26/38 27/29/41 37/30/42
s 1
f 29/31/43 4/4/5 7/7/44 10/10/45
s 3
f 21/23/35 30/32/46 31/33/47 22/24/36
f 33/34/48 32/35/49 20/21/33 28/22/34
s 4
f 34/36/50 35/37/51 24/25/37 36/28/40
s 3
f 30/32/46 38/38/52 39/39/53 31/33/47
s 4
f 40/40/54 41/41/55 35/37/51 34/36/50
f 27/29/41 43/42/56 42/43/57 37/30/42
s 2
f 3/3/16 44/44/58 9/9/59 8/8/60
s 3
f 45/45/61 32/35/49 33/34/48 49/46/62
s 4
f 46/47/63 47/48/64 41/41/55 40/40/54
f 42/43/57 43/42/56 48/49/65 50/50/66
s off
f 44/44/67 29/31/68 10/10/69 9/9/70
s 3
f 51/51/71 45/45/61 49/46/62 52/52/72
s 4
f 50/50/66 48/49/65 53/53/73 55/54/74
s 3
f 51/51/71 52/52/72 54/55/75 56/56/76
s 4
f 57/57/77 55/54/74 53/53/73 59/58/78
s 3
f 56/56/76 54/55/75 58/59/79 61/60/80
s 4
f 60/61/81 57/57/77 59/58/78 62/62/82
s 1
f 5/5/6 4/4/5 29/31/43 63/63/83
s 2
f 3/3/16 12/12/15 64/64/84 44/44/58
s off
f 65/65/85 29/31/86 44/44/87 66/66/88
s 1
f 67/67/89 63/63/83 29/31/43 65/65/90
f 13/13/17 5/5/6 63/63/83 68/68/91
s 5
f 25/26/92 24/25/93 18/19/94 17/18/95
s 2
f 66/66/96 44/44/58 64/64/84 69/69/97
s 5
f 24/25/93 35/37/98 21/23/99 18/19/94
s 2
f 64/64/84 12/12/15 16/16/20 70/70/100
s 1
f 71/71/101 68/68/91 63/63/83 67/67/89
s 5
f 35/37/98 41/41/102 30/32/103 21/23/99
f 41/41/102 47/48/104 38/38/105 30/32/103
s 2
f 69/69/97 64/64/84 70/70/100 72/72/106
s off
f 72/72/107 70/70/108 68/68/109 71/71/110
f 36/28/111 23/27/112 19/17/113 26/20/114
f 23/27/115 37/30/116 28/22/117 19/17/118
f 34/36/119 36/28/120 26/20/121 22/24/122
s 5
f 47/48/104 73/73/123 74/74/124 38/38/105
s off
f 37/30/125 42/43/126 33/34/127 28/22/128
f 40/40/129 34/36/130 22/24/131 31/33/132
s 3
f 38/38/52 74/74/133 75/75/134 39/39/53
s off
f 16/16/135 13/13/136 76/76/137 77/77/138
s 5
f 48/49/139 43/42/140 32/35/141 45/45/142
s off
f 46/47/143 40/40/144 31/33/145 39/39/146
s 4
f 46/47/63 78/78/147 73/73/148 47/48/64
s 5
f 73/73/123 79/79/149 80/80/150 74/74/124
s off
f 42/43/151 50/50/152 49/46/153 33/34/154
s 3
f 74/74/133 80/80/155 81/81/156 75/75/134
s off
f 78/78/157 46/47/158 39/39/159 75/75/160
s 1
f 13/13/17 68/68/91 82/82/161 76/76/162
s 4
f 78/78/147 83/83/163 79/79/164 73/73/148
s off
f 83/83/165 78/78/166 75/75/167 81/81/168
s 3
f 80/80/155 84/84/169 85/85/170 81/81/156
s 2
f 70/70/100 16/16/20 77/77/171 86/86/172
s 5
f 79/79/149 87/87/173 84/84/174 80/80/150
s off
f 50/50/175 55/54/176 52/52/177 49/46/178
f 88/88/179 83/83/180 81/81/181 85/85/182
s 5
f 53/53/183 48/49/139 45/45/142 51/51/184
s 4
f 83/83/163 88/88/185 87/87/186 79/79/164
s 3
f 84/84/169 89/89/187 90/90/188 85/85/170
s off
f 68/68/189 70/70/190 86/86/191 82/82/192
f 55/54/193 57/57/194 54/55/195 52/52/196
f 91/91/197 88/88/198 85/85/199 90/90/200
s 5
f 87/87/173 92/92/201 89/89/202 84/84/174
s 4
f 88/88/185 91/91/203 92/92/204 87/87/186
s 3
f 89/89/187 93/93/205 94/94/206 90/90/188
s off
f 95/95/207 91/91/208 90/90/209 94/94/210
s 5
f 59/58/211 53/53/183 51/51/184 56/56/212
s off
f 57/57/213 60/61/214 58/59/215 54/55/216
s 5
f 92/92/201 96/96/217 93/93/218 89/89/202
s 4
f 91/91/203 95/95/219 96/96/220 92/92/204
s off
f 97/97/221 95/95/222 94/94/223 98/98/224
s 3
f 93/93/205 99/99/225 98/98/226 94/94/206
s off
f 60/61/227 100/100/228 101/101/229 58/59/230
f 77/77/231 76/76/232 82/82/233 86/86/234
s 5
f 62/62/235 59/58/211 56/56/212 61/60/236
s off
f 102/102/237 97/97/238 98/98/239 103/103/240
s 3
f 104/104/241 61/60/80 58/59/79 101/101/242
s off
f 100/100/243 105/105/244 106/106/245 101/101/246
s 4
f 95/95/219 97/97/247 107/107/248 96/96/220
s off
f 108/108/249 102/102/250 103/103/251 109/109/252
s 3
f 99/99/225 110/110/253 103/103/254 98/98/226
s off
f 105/105/255 111/111/256 112/112/257 106/106/258
f 111/111/259 108/108/260 109/109/261 112/112/262
s 5
f 96/96/217 107/107/263 99/99/264 93/93/218
s 3
f 113/113/265 104/104/241 101/101/242 106/106/266
s 4
f 100/100/267 60/61/81 62/62/82 114/114/268
s 3
f 110/110/253 115/115/269 109/109/270 103/103/254
s 5
f 114/114/271 62/62/235 61/60/236 104/104/272
s 3
f 116/116/273 113/113/265 106/106/266 112/112/274
s 4
f 97/97/247 102/102/275 117/117/276 107/107/248
s 3
f 115/115/269 116/116/273 112/112/274 109/109/270
s 4
f 105/105/277 100/100/267 114/114/268 118/118/278
s 5
f 107/107/263 117/117/279 110/110/280 99/99/264
s 4
f 102/102/275 108/108/281 119/119/282 117/117/276
f 111/111/283 105/105/277 118/118/278 120/120/284
f 108/108/281 111/111/283 120/120/284 119/119/282
s 5
f 118/118/285 114/114/271 104/104/272 113/113/286
f 117/117/279 119/119/287 115/115/288 110/110/280
f 120/120/289 118/118/285 113/113/286 116/116/290
f 119/119/287 120/120/289 116/116/290 115/115/288
s 7
f 27/29/291 25/26/292 17/18/293 65/65/294 66/66/295 69/69/296 72/72/297 43/42/298
f 72/72/297 71/71/299 67/67/300 65/65/294 17/18/293 20/21/301 32/35/302 43/42/298
s 8
f 11/11/303 6/6/304 14/14/305 15/15/306
f 1/1/307 6/6/304 11/11/303 2/2/308
